<?xml version="1.0" standalone="no"?>
<!DOCTYPE svg PUBLIC "-//W3C//DTD SVG 20010904//EN"
 "http://www.w3.org/TR/2001/REC-SVG-20010904/DTD/svg10.dtd">
<svg version="1.0" xmlns="http://www.w3.org/2000/svg"
 width="432.000000pt" height="432.000000pt" viewBox="0 0 432.000000 432.000000"
 preserveAspectRatio="xMidYMid meet">
<metadata>
Created by potrace 1.14, written by Peter Selinger 2001-2017
</metadata>
<g transform="translate(0.000000,432.000000) scale(0.100000,-0.100000)"
fill="#000000" stroke="none">
<path d="M683 3965 c-35 -35 -36 -36 -30 -103 4 -59 14 -85 79 -212 173 -337
248 -480 333 -635 34 -62 105 -196 156 -293 21 -40 54 -100 72 -135 19 -34 54
-98 77 -142 24 -44 53 -98 65 -120 12 -22 36 -65 52 -95 17 -30 45 -80 62
-110 17 -30 40 -75 52 -100 12 -25 25 -52 29 -60 30 -64 62 -221 54 -271 -10
-58 19 -52 39 9 8 26 41 119 72 207 31 88 72 205 90 260 19 55 39 116 46 135
7 19 14 42 17 50 3 8 18 51 34 95 16 44 31 89 34 100 3 11 9 29 14 40 5 11 16
45 26 75 10 30 21 60 25 65 4 6 10 26 14 45 4 19 12 41 18 49 6 7 11 45 11 85
0 57 -5 81 -28 125 -27 53 -168 201 -231 244 -18 12 -55 40 -83 62 -28 22 -72
56 -99 75 -26 19 -50 37 -53 40 -3 3 -18 14 -34 25 -16 11 -41 29 -56 40 -16
11 -60 42 -99 68 -39 27 -77 54 -84 61 -6 6 -46 34 -87 61 -41 28 -79 53 -85
58 -32 23 -206 143 -254 175 -79 52 -106 62 -163 62 -44 0 -54 -4 -85 -35z"/>
<path d="M2160 3760 c-14 -4 -40 -8 -59 -9 -35 -1 -121 -19 -221 -47 -57 -16
-70 -21 -130 -46 -89 -37 -100 -44 -100 -58 0 -9 15 -24 33 -35 17 -10 34 -21
37 -25 3 -3 27 -21 53 -40 44 -32 50 -33 85 -23 98 29 182 52 237 64 77 18
442 19 500 2 22 -6 74 -20 115 -29 41 -10 79 -21 84 -26 6 -4 16 -8 24 -8 46
0 323 -150 404 -220 7 -6 24 -19 38 -31 14 -11 63 -57 110 -104 l85 -83 123
-7 c146 -9 145 -9 71 91 -50 67 -283 304 -299 304 -5 0 -15 6 -22 13 -19 19
-139 97 -148 97 -5 0 -10 3 -12 8 -4 8 -178 94 -228 112 -19 6 -44 16 -55 20
-11 5 -47 16 -80 25 -33 9 -74 20 -90 25 -96 30 -493 51 -555 30z"/>
<path d="M2056 3468 c-23 -33 -20 -61 14 -115 55 -88 98 -230 120 -393 11 -83
20 -120 30 -120 4 0 18 14 31 31 47 62 135 153 194 201 33 27 66 53 74 60 7 6
43 27 80 46 36 19 71 42 78 51 18 23 16 72 -4 86 -20 15 -75 -1 -123 -35 -15
-11 -31 -20 -35 -20 -11 0 -102 -73 -192 -153 l-42 -39 -7 29 c-9 39 -31 121
-43 163 -6 20 -22 59 -36 88 -14 28 -25 54 -25 57 0 3 -12 23 -26 45 -31 46
-64 53 -88 18z"/>
<path d="M908 2908 c-13 -24 -29 -54 -35 -68 -6 -14 -19 -43 -29 -65 -63 -142
-94 -257 -119 -440 -23 -171 -18 -385 9 -385 6 0 49 26 96 59 l85 58 6 124 c4
68 12 151 18 184 18 87 41 177 51 200 5 11 16 43 26 70 10 28 24 61 31 75 16
31 16 45 1 62 -7 7 -30 48 -52 91 -21 42 -44 77 -51 77 -7 0 -24 -19 -37 -42z"/>
<path d="M2515 2930 c-11 -5 -34 -9 -50 -9 -42 -1 -124 -45 -161 -87 -17 -19
-39 -56 -48 -82 -10 -26 -22 -56 -26 -67 -5 -11 -36 -101 -69 -200 -73 -218
-82 -244 -92 -270 -5 -11 -16 -42 -24 -70 -9 -27 -20 -59 -25 -70 -6 -11 -29
-78 -53 -150 -24 -71 -63 -185 -86 -253 -24 -68 -40 -126 -36 -130 4 -4 21 11
38 33 78 99 189 187 277 219 14 5 40 18 58 28 18 10 37 18 42 18 5 0 38 13 73
30 36 17 70 30 75 30 6 0 27 9 49 19 21 11 54 27 73 35 83 35 138 59 176 77
22 10 43 19 46 19 4 0 39 15 80 34 40 18 123 55 183 80 61 26 128 56 150 66
22 10 58 26 80 35 41 17 60 26 198 89 43 20 80 36 83 36 2 0 41 17 87 38 45
21 127 58 182 82 164 73 218 104 253 149 26 34 32 52 32 90 0 40 -5 52 -32 78
-44 41 -121 63 -227 63 -47 0 -131 5 -186 11 -264 26 -1079 48 -1120 29z"/>
<path d="M1341 2209 c-19 -11 -40 -27 -48 -35 -8 -8 -20 -14 -28 -14 -7 0 -15
-4 -17 -9 -1 -4 -52 -42 -113 -83 -60 -41 -130 -89 -155 -107 -25 -18 -57 -40
-72 -49 -16 -9 -28 -20 -28 -24 0 -5 -6 -8 -13 -8 -7 0 -24 -11 -39 -25 -15
-14 -30 -25 -32 -25 -6 0 -149 -100 -173 -120 -7 -5 -16 -10 -20 -10 -5 0 -20
-10 -33 -22 -14 -13 -66 -50 -115 -83 -109 -73 -128 -88 -182 -144 -34 -34
-43 -51 -43 -78 0 -49 14 -68 60 -87 59 -23 130 -21 450 15 47 5 137 13 200
19 63 5 138 14 165 19 28 5 93 17 145 27 52 9 100 20 105 24 6 4 23 10 39 14
17 4 42 16 57 27 15 10 31 19 36 19 19 0 96 87 116 130 32 72 35 204 7 287
-12 37 -28 72 -34 78 -6 7 -49 73 -96 148 -47 76 -89 137 -95 137 -5 0 -25 -9
-44 -21z"/>
<path d="M2400 1813 c-25 -8 -54 -18 -65 -23 -11 -4 -63 -23 -115 -41 -52 -18
-115 -43 -140 -57 -60 -33 -141 -117 -170 -178 -29 -58 -37 -149 -20 -207 13
-47 62 -147 84 -174 149 -180 165 -197 501 -518 218 -208 287 -245 350 -185
21 20 25 32 25 85 0 54 -14 116 -40 180 -10 24 -48 155 -62 210 -5 22 -13 49
-18 60 -9 24 -57 180 -65 215 -4 14 -10 34 -15 45 -4 11 -16 47 -25 80 -36
125 -66 221 -75 237 -6 10 -10 24 -10 31 0 7 -11 46 -24 87 -13 41 -29 94 -35
116 -6 23 -17 44 -24 47 -7 3 -33 -2 -57 -10z"/>
<path d="M1188 1225 c-2 -3 -40 -10 -84 -16 -43 -6 -83 -14 -88 -19 -18 -17
150 -208 274 -312 95 -79 238 -178 258 -178 6 0 12 -4 14 -8 2 -7 85 -49 163
-82 154 -67 412 -120 588 -120 67 0 77 2 77 18 0 9 -43 59 -97 109 -79 75
-104 93 -128 93 -32 0 -167 27 -200 40 -11 5 -38 14 -60 20 -119 36 -330 147
-433 229 -18 14 -78 72 -134 129 -93 93 -130 117 -150 97z"/>
</g>
</svg>
